<svg xmlns="http://www.w3.org/2000/svg" width="96" height="128" viewBox="0 0 96 128" role="img" aria-label="Torre de Telefonia Móvel">
  <title>Torre de Telefonia Móvel</title>
  <defs>
    <linearGradient id="towerBody" x1="0" x2="0" y1="0" y2="1">
      <stop offset="0" stop-color="#2f6d9f"/>
      <stop offset="1" stop-color="#10233f"/>
    </linearGradient>
    <filter id="shadow" x="-30%" y="-20%" width="160%" height="150%">
      <feDropShadow dx="0" dy="4" stdDeviation="3" flood-color="#0f172a" flood-opacity="0.28"/>
    </filter>
  </defs>
  <g fill="none" stroke-linecap="round" stroke-linejoin="round" filter="url(#shadow)">
    <path d="M48 25v80" stroke="url(#towerBody)" stroke-width="7"/>
    <path d="M32 106h32M40 118h16" stroke="#10233f" stroke-width="9"/>
    <path d="M48 39 27 106M48 39l21 67M35 80h26M39 62h18" stroke="#173f6f" stroke-width="4"/>
    <rect x="19" y="35" width="12" height="35" rx="4" fill="#2364aa" stroke="#e0f2fe" stroke-width="2"/>
    <rect x="65" y="35" width="12" height="35" rx="4" fill="#2364aa" stroke="#e0f2fe" stroke-width="2"/>
    <rect x="42" y="18" width="12" height="18" rx="5" fill="#10233f" stroke="#e0f2fe" stroke-width="2"/>
    <path d="M30 24c-9 8-14 18-14 31M66 24c9 8 14 18 14 31" stroke="#2364aa" stroke-width="5" opacity="0.85"/>
    <path d="M20 13C7 25 2 39 2 55M76 13c13 12 18 26 18 42" stroke="#7aa6cc" stroke-width="4" opacity="0.65"/>
  </g>
</svg>
